<svg version="1.2" xmlns="http://www.w3.org/2000/svg" viewBox="0 0 108 81" width="108" height="81">
	<title>mintme-svg</title>
	<style>
		.s0 { fill: #d1b000 } 
	</style>
	<g id="Layer_2_1_">
		<g id="layer1">
			<g id="g1527281">
				<path id="path1522556" fill-rule="evenodd" class="s0" d="m107.6 40.4c0 22.4-18.1 40.5-40.4 40.5-5.9 0-11.8-1.3-17.2-3.9v-7.4h-8v2.1c-5.2-4-9.2-9.3-11.8-15.3h4.2v-8.1h-6.7c-0.5-2.4-0.8-4.8-0.8-7.3h5.7v-8.1h-5c0.7-3.9 2-7.8 3.9-11.3h6.4v-8.1h-0.8c2-2.2 4.3-4.2 6.7-6v2.4h8.1v-6.9c4.8-2 10-3 15.3-3 22.3 0 40.4 18 40.4 40.4zm-75.1-9h8.1v-8.1h-8.1zm8.3 5.6l-2.6 16.9h6.4l3.2-18.2 3.4 17 0.2 1.2h5.3l0.3-0.7 9-16.2-2.7 16.9h6.5l5.2-29.1h-8.3l-11.3 20.3-4.1-20.3h-8.3zm34 5.1c-1.3 6.6 3 11.9 9.4 11.9 5.1-0.2 9.7-3.1 12.2-7.6h-8c-0.9 1.1-2.2 1.7-3.6 1.8-2.2 0-3.6-1.9-3.6-4.4h16.3c0.2-0.6 0.3-1.1 0.4-1.7 1.3-6.6-3-11.9-9.4-11.9-6.4 0-12.4 5.3-13.7 11.9zm16.1-2.3h-8.7c1.2-2.4 3.2-3.8 5.1-3.8 1.9 0 3.2 1.5 3.6 3.8zm-55.6 25.1h8.1v-8.1h-8.1z"/>
				<path id="rect1522842" class="s0" d="m27.8 2.2h8.1v8.1h-8.1z"/>
				<path id="rect1522844" class="s0" d="m19.9 13.4h8.1v8.1h-8.1z"/>
				<path id="rect1522846" class="s0" d="m0.1 14.5h8.1v8.1h-8.1z"/>
				<path id="rect1522848" class="s0" d="m8.2 29.9h8.1v8.1h-8.1z"/>
				<path id="rect1522850" class="s0" d="m14.9 48.2h8.1v8.1h-8.1z"/>
				<path id="rect1522852" class="s0" d="m0 56.4h8.1v8.1h-8.1z"/>
				<path id="rect1522854" class="s0" d="m21.9 68.7h8.1v8.1h-8.1z"/>
			</g>
		</g>
	</g>
</svg>