<?xml version="1.0" standalone="no"?>
<!DOCTYPE svg PUBLIC "-//W3C//DTD SVG 20010904//EN"
 "http://www.w3.org/TR/2001/REC-SVG-20010904/DTD/svg10.dtd">
<svg version="1.0" xmlns="http://www.w3.org/2000/svg"
 width="700.000000pt" height="700.000000pt" viewBox="0 0 700.000000 700.000000"
 preserveAspectRatio="xMidYMid meet">
<metadata>
Created by potrace 1.14, written by Peter Selinger 2001-2017
</metadata>
<g transform="translate(0.000000,700.000000) scale(0.100000,-0.100000)"
fill="#000000" stroke="none">
<path d="M3329 6856 c-2 -2 -49 -7 -104 -10 -56 -4 -110 -8 -120 -10 -11 -2
-47 -7 -80 -11 -74 -8 -265 -47 -371 -74 -83 -21 -308 -94 -359 -116 -16 -7
-75 -32 -130 -55 -316 -135 -630 -332 -865 -544 -75 -68 -312 -307 -368 -373
-199 -231 -402 -566 -527 -867 -63 -153 -147 -421 -171 -541 -2 -11 -8 -43
-14 -71 -6 -28 -13 -64 -16 -80 -2 -16 -6 -40 -9 -54 -3 -14 -7 -47 -11 -75
-3 -27 -8 -59 -10 -70 -17 -92 -24 -494 -11 -655 6 -79 22 -211 33 -270 2 -14
8 -52 14 -85 14 -90 74 -316 115 -440 195 -584 556 -1108 1045 -1516 328 -274
764 -504 1184 -624 139 -40 319 -81 391 -91 17 -2 47 -6 68 -10 116 -19 251
-27 452 -28 165 0 384 9 435 18 14 2 74 12 134 21 307 47 672 166 961 313 339
172 601 366 887 655 344 348 614 787 769 1249 35 105 100 347 113 418 2 14 7
36 10 50 6 27 11 57 31 200 23 159 23 691 0 810 -2 12 -7 43 -10 68 -13 113
-59 324 -105 486 -97 337 -306 760 -497 1006 -245 317 -421 495 -704 713 -190
147 -489 317 -728 414 -87 35 -214 81 -241 88 -8 2 -55 16 -105 30 -106 32
-327 81 -405 90 -30 4 -57 8 -60 10 -5 2 -75 10 -185 21 -64 6 -431 14 -436
10z m456 -200 c97 -10 126 -14 345 -51 59 -10 273 -69 369 -101 459 -155 861
-406 1217 -759 409 -406 691 -901 828 -1455 19 -74 37 -153 41 -175 4 -22 9
-49 11 -60 31 -177 39 -284 39 -535 0 -259 -6 -345 -40 -537 -26 -152 -26
-150 -50 -243 -165 -647 -553 -1252 -1066 -1666 -449 -360 -963 -587 -1529
-673 -138 -21 -213 -26 -455 -26 -281 0 -353 6 -581 46 -433 76 -867 261
-1254 534 -47 32 -87 62 -90 65 -3 3 -39 32 -80 65 -95 75 -357 337 -437 435
-211 262 -394 577 -502 863 -84 221 -153 484 -176 666 -4 30 -9 63 -11 75 -24
126 -24 665 1 806 2 14 11 68 20 120 9 52 23 124 31 160 9 36 17 72 19 81 2 9
13 49 25 90 104 349 243 644 439 929 168 246 436 527 672 706 489 370 1071
596 1656 643 95 7 476 5 558 -3z"/>
<path d="M3297 6524 c-1 -1 -29 -5 -62 -8 -106 -10 -160 -17 -175 -21 -8 -2
-40 -7 -70 -10 -30 -4 -58 -9 -61 -11 -3 -2 -21 -6 -40 -9 -207 -36 -491 -133
-721 -246 -601 -297 -1076 -771 -1375 -1371 -40 -81 -73 -153 -73 -160 0 -8
-4 -18 -9 -23 -11 -13 -86 -216 -101 -275 -6 -25 -17 -63 -25 -85 -7 -22 -15
-53 -18 -70 -3 -16 -12 -59 -20 -95 -8 -36 -18 -83 -21 -105 -4 -22 -11 -67
-16 -100 -17 -110 -24 -229 -25 -400 0 -157 10 -358 20 -388 2 -6 6 -36 10
-66 3 -29 7 -56 9 -60 2 -3 7 -28 10 -55 4 -27 9 -52 11 -55 1 -3 6 -22 9 -41
3 -19 23 -99 45 -177 225 -794 767 -1459 1501 -1841 290 -151 564 -244 895
-301 60 -11 78 -13 210 -28 88 -10 499 -10 580 0 33 4 78 10 100 12 22 3 51 7
65 10 14 3 39 7 57 9 49 7 177 35 293 66 362 97 760 302 1070 550 112 90 351
320 412 398 21 26 53 65 73 87 19 22 35 43 35 47 0 4 6 13 13 20 20 20 120
166 157 228 52 87 153 286 199 393 61 139 145 397 166 508 2 11 6 28 9 37 3 9
8 37 11 62 4 24 8 47 10 51 2 3 7 34 11 70 3 35 8 67 10 70 7 13 18 242 18
399 0 153 -9 316 -19 365 -2 11 -6 38 -9 60 -25 191 -98 458 -184 676 -205
513 -566 977 -1022 1311 -446 325 -1022 536 -1545 564 -107 5 -414 11 -418 8z
m-1087 -1306 c7 -2209 9 -2637 15 -2663 34 -165 138 -321 251 -376 223 -107
471 -19 580 207 63 132 63 124 68 1204 l1 415 358 2 357 1 0 -81 c5 -863 10
-1331 14 -1367 16 -137 129 -307 240 -358 114 -54 304 -63 400 -19 102 47 171
130 228 274 l31 78 3 1180 c4 1373 8 1843 17 1851 7 7 200 -94 205 -108 2 -4
8 -8 14 -8 28 0 299 -212 424 -332 l71 -69 -2 -1292 c-1 -711 -5 -1314 -9
-1342 -19 -129 -69 -280 -127 -384 -94 -166 -286 -368 -409 -431 -85 -43 -337
-116 -435 -126 -58 -6 -264 -6 -305 0 -229 34 -436 141 -611 318 l-89 90 -87
-80 c-111 -102 -158 -137 -258 -196 -104 -60 -245 -110 -365 -129 -118 -19
-319 -15 -425 7 -281 59 -508 208 -652 429 -95 144 -147 282 -199 522 -9 39
-13 427 -16 1499 l-3 1088 78 84 c122 130 313 277 541 416 44 26 83 48 87 48
5 0 9 -159 9 -352z"/>
</g>
</svg>
